<?xml version="1.0"?>
<svg xmlns="http://www.w3.org/2000/svg" xmlns:xlink="http://www.w3.org/1999/xlink" version="1.1" id="Capa_1" x="0px" y="0px" width="512px" height="512px" viewBox="0 0 965.199 965.199" style="enable-background:new 0 0 965.199 965.199;" xml:space="preserve" class=""><g transform="matrix(1 0 0 1 0 0)"><g>
	<path d="M61.85,420.1h300.1c33.101,0,60-26.9,60-60V60c0-33.1-26.899-60-60-60H61.85c-33.1,0-60,26.9-60,60v300.1   C1.85,393.3,28.649,420.1,61.85,420.1z" data-original="#000000" class="active-path" data-old_color="#000000" fill="#FFFFFF"/>
	<path d="M603.249,420.1H903.35c33.1,0,60-26.9,60-60V60c0-33.1-26.9-60-60-60H603.249c-33.1,0-60,26.9-60,60v300.1   C543.249,393.3,570.149,420.1,603.249,420.1z" data-original="#000000" class="active-path" data-old_color="#000000" fill="#FFFFFF"/>
	<path d="M1.85,905.199c0,33.102,26.9,60,60,60h300.1c33.101,0,60-26.898,60-60V605.1c0-33.1-26.899-60-60-60H61.85   c-33.1,0-60,26.9-60,60V905.199z" data-original="#000000" class="active-path" data-old_color="#000000" fill="#FFFFFF"/>
	<path d="M543.249,905.199c0,33.102,26.9,60,60,60H903.35c33.1,0,60-26.898,60-60V605.1c0-33.1-26.9-60-60-60H603.249   c-33.1,0-60,26.9-60,60V905.199z" data-original="#000000" class="active-path" data-old_color="#000000" fill="#FFFFFF"/>
</g></g> </svg>
